<?xml version="1.0" encoding="UTF-8" standalone="no"?>
<svg width="980px" height="400px" viewBox="0 0 980 400" version="1.1" xmlns="http://www.w3.org/2000/svg" xmlns:xlink="http://www.w3.org/1999/xlink">
    <!-- Generator: Sketch 40 (33762) - http://www.bohemiancoding.com/sketch -->
    <title>Oval 1</title>
    <desc>Created with Sketch.</desc>
    <defs>
        <polygon id="path-1" points="127.35601 -2.02162787e-14 254.712019 73.5290265 254.712019 220.587079 127.35601 294.116106 6.39488462e-14 220.587079 -1.77635684e-14 73.5290265"></polygon>
    </defs>
    <g id="Page-1" stroke="none" stroke-width="1" fill="none" fill-rule="evenodd">
        <g id="Polygon-Copy-3-+-Combined-Shape-Mask" transform="translate(490.500000, 200.060669) scale(1, -1) translate(-490.500000, -200.060669) translate(363.000000, 53.000000)">
            <mask id="mask-2" fill="white">
                <use xlink:href="#path-1"></use>
            </mask>
            <g id="Mask"></g>
            <polygon id="Polygon-Copy-3" stroke="#4990E2" mask="url(#mask-2)" points="127.35601 -2.02162787e-14 254.712019 73.5290265 254.712019 220.587079 127.35601 294.116106 6.39488462e-14 220.587079 -1.77635684e-14 73.5290265"></polygon>
            <path d="M8.65962752,48.7731636 C-1.38034774,65.4126156 -7.15690311,84.9146221 -7.15690311,105.765925 C-7.15690311,166.775929 42.2974656,216.23431 103.302521,216.23431 C137.72535,216.23431 168.470538,200.487182 188.728454,175.80311 C181.540185,178.145322 173.866046,179.411515 165.896195,179.411515 C125.226158,179.411515 92.2565787,146.439261 92.2565787,105.765925 C92.2565787,65.0925887 125.226158,32.1203351 165.896195,32.1203351 C173.712494,32.1203351 181.244367,33.3382076 188.312435,35.5945599 L188.485223,35.736066 L260.334728,35.736066 L260.334728,-43.906458 L252.119648,-43.906458 L252.119648,-69.9577508 L49.8535875,-69.9577508 L49.8535875,-88.3554983 L-87.2639514,-88.3554983 L-87.2639514,48.7731636 L8.65962752,48.7731636 Z" id="Combined-Shape" fill="#689FB6" mask="url(#mask-2)"></path>
        </g>
    </g>
</svg>