<?xml version="1.0" encoding="UTF-8"?>
<svg width="980px" height="400px" viewBox="0 0 980 400" version="1.1" xmlns="http://www.w3.org/2000/svg" xmlns:xlink="http://www.w3.org/1999/xlink">
    <!-- Generator: Sketch 39.1 (31720) - http://www.bohemiancoding.com/sketch -->
    <title>Oval 1</title>
    <desc>Created with Sketch.</desc>
    <defs>
        <polygon id="path-1" points="127.299363 0 254.598726 73.4963215 254.598726 220.488964 127.299363 293.985286 6.39488462e-14 220.488964 -1.77635684e-14 73.4963215"></polygon>
    </defs>
    <g id="Page-1" stroke="none" stroke-width="1" fill="none" fill-rule="evenodd">
        <g id="Rectangle-1-Copy" transform="translate(363.000000, 53.000000)">
            <mask id="mask-2" fill="white">
                <use xlink:href="#path-1"></use>
            </mask>
            <g id="Mask"></g>
            <g mask="url(#mask-2)" id="Shape" fill="#8FAA54">
                <g transform="translate(57.000000, 130.000000)">
                    <path d="M140.147108,7.19276421 L140.147108,50.162747 C140.147108,54.0241961 137.139106,57.1539042 133.423885,57.1539042 L122.401522,57.1539042 L122.401522,202.255373 C122.401522,206.496675 119.119007,209.936324 115.066462,209.936324 L25.2567648,209.936324 C21.20422,209.936324 17.9193788,206.496675 17.9193788,202.255373 L17.9193788,57.1539042 L7.16222197,57.1539042 C3.44932786,57.1539042 0.441325301,54.0241961 0.441325301,50.162747 L0.441325301,7.19276421 C0.441325301,3.33131503 3.44932786,0.201606971 7.16222197,0.201606971 L133.423885,0.201606971 C137.139106,0.201606971 140.147108,3.33131503 140.147108,7.19276421 L140.147108,7.19276421 Z M48.1529451,61.4161797 C48.1529451,58.9389797 46.2546233,56.9278568 43.911964,56.9278568 L34.7669848,56.9278568 C32.4266518,56.9278568 30.5260036,58.9389797 30.5260036,61.4161797 L30.5260036,195.53221 C30.5260036,198.00941 32.4243254,200.022863 34.7669848,200.022863 L43.911964,200.022863 C46.252297,200.022863 48.1529451,198.01174 48.1529451,195.53221 L48.1529451,61.4161797 L48.1529451,61.4161797 Z M23.5329211,8.05966771 L14.3856156,8.05966771 C12.0452826,8.05966771 10.1469608,9.88669013 10.1469608,12.1378428 L10.1469608,32.794382 L10.1469608,41.1138591 L10.1469608,42.9478727 C10.1469608,45.2013557 12.0452826,47.0283781 14.3856156,47.0283781 L23.5329211,47.0283781 C25.8732541,47.0283781 27.7715759,45.2013557 27.7715759,42.9478727 L27.7715759,41.1138591 L27.7715759,32.794382 L27.7715759,12.1401731 C27.7715759,9.88669013 25.8732541,8.05966771 23.5329211,8.05966771 L23.5329211,8.05966771 Z"></path>
                </g>
            </g>
        </g>
        <polygon id="Polygon-Copy" stroke="#8FAA54" points="490.299363 53 617.598726 126.496321 617.598726 273.488964 490.299363 346.985286 363 273.488964 363 126.496321"></polygon>
    </g>
</svg>