<?xml version="1.0" encoding="UTF-8"?>
<svg width="980px" height="605px" viewBox="0 0 980 605" version="1.1" xmlns="http://www.w3.org/2000/svg" xmlns:xlink="http://www.w3.org/1999/xlink">
    <!-- Generator: Sketch 49 (51002) - http://www.bohemiancoding.com/sketch -->
    <title>Oval 1</title>
    <desc>Created with Sketch.</desc>
    <defs>
        <polygon id="path-1" points="127.35601 -2.02162787e-14 254.712019 73.5290265 254.712019 220.587079 127.35601 294.116106 5.68434189e-14 220.587079 -2.48689958e-14 73.5290265"></polygon>
    </defs>
    <g id="Page-1" stroke="none" stroke-width="1" fill="none" fill-rule="evenodd">
        <g id="Polygon-Copy-3-+-Combined-Shape-Mask" transform="translate(490.500000, 302.500000) scale(1, -1) translate(-490.500000, -302.500000) translate(363.000000, 155.000000)">
            <mask id="mask-2" fill="white">
                <use xlink:href="#path-1"></use>
            </mask>
            <g id="Mask"></g>
            <path d="M127.35601,4.04145188 L3.5,75.5497524 L3.5,218.566353 L127.35601,290.074654 L251.212019,218.566353 L251.212019,75.5497524 L127.35601,4.04145188 Z" id="Polygon-Copy-3" stroke="#343334" stroke-width="7" mask="url(#mask-2)"></path>
            <path d="M8.65962752,48.7731636 L-87.2639514,48.7731636 L-87.2639514,-88.3554983 L49.8535875,-88.3554983 L49.8535875,-69.9577508 L252.119648,-69.9577508 L252.119648,-43.906458 L260.334728,-43.906458 L260.334728,35.736066 L188.485223,35.736066 L188.312435,35.5945599 C181.244367,33.3382076 173.712494,32.1203351 165.896195,32.1203351 C125.226158,32.1203351 92.2565787,65.0925887 92.2565787,105.765925 C92.2565787,146.439261 125.226158,179.411515 165.896195,179.411515 C173.866046,179.411515 181.540185,178.145322 188.728454,175.80311 C168.470538,200.487182 137.72535,216.23431 103.302521,216.23431 C42.2974656,216.23431 -7.15690311,166.775929 -7.15690311,105.765925 C-7.15690311,84.9146221 -1.38034774,65.4126156 8.65962752,48.7731636 Z" id="Combined-Shape" fill="#343334" mask="url(#mask-2)"></path>
        </g>
    </g>
</svg>