<?xml version="1.0" encoding="UTF-8" standalone="no"?>
<svg width="790px" height="400px" viewBox="0 0 790 400" version="1.1" xmlns="http://www.w3.org/2000/svg" xmlns:xlink="http://www.w3.org/1999/xlink">
    <!-- Generator: Sketch 3.8.3 (29802) - http://www.bohemiancoding.com/sketch -->
    <title>Oval 1</title>
    <desc>Created with Sketch.</desc>
    <defs>
        <circle id="path-1" cx="128" cy="128" r="128"></circle>
    </defs>
    <g id="Page-1" stroke="none" stroke-width="1" fill="none" fill-rule="evenodd">
        <g id="Rectangle-1-Copy" transform="translate(267.000000, 72.000000)">
            <mask id="mask-2" fill="white">
                <use xlink:href="#path-1"></use>
            </mask>
            <use id="Mask" fill="#303030" xlink:href="#path-1"></use>
            <path d="M198.147108,118.192764 L198.147108,161.162747 C198.147108,165.024196 195.139106,168.153904 191.423885,168.153904 L180.401522,168.153904 L180.401522,313.255373 C180.401522,317.496675 177.119007,320.936324 173.066462,320.936324 L83.2567648,320.936324 C79.20422,320.936324 75.9193788,317.496675 75.9193788,313.255373 L75.9193788,168.153904 L65.162222,168.153904 C61.4493279,168.153904 58.4413253,165.024196 58.4413253,161.162747 L58.4413253,118.192764 C58.4413253,114.331315 61.4493279,111.201607 65.162222,111.201607 L191.423885,111.201607 C195.139106,111.201607 198.147108,114.331315 198.147108,118.192764 L198.147108,118.192764 Z M106.152945,172.41618 C106.152945,169.93898 104.254623,167.927857 101.911964,167.927857 L92.7669848,167.927857 C90.4266518,167.927857 88.5260036,169.93898 88.5260036,172.41618 L88.5260036,306.53221 C88.5260036,309.00941 90.4243254,311.022863 92.7669848,311.022863 L101.911964,311.022863 C104.252297,311.022863 106.152945,309.01174 106.152945,306.53221 L106.152945,172.41618 L106.152945,172.41618 Z M81.5329211,119.059668 L72.3856156,119.059668 C70.0452826,119.059668 68.1469608,120.88669 68.1469608,123.137843 L68.1469608,143.794382 L68.1469608,152.113859 L68.1469608,153.947873 C68.1469608,156.201356 70.0452826,158.028378 72.3856156,158.028378 L81.5329211,158.028378 C83.8732541,158.028378 85.7715759,156.201356 85.7715759,153.947873 L85.7715759,152.113859 L85.7715759,143.794382 L85.7715759,123.140173 C85.7715759,120.88669 83.8732541,119.059668 81.5329211,119.059668 L81.5329211,119.059668 Z" id="Shape" fill="#8FAA54" mask="url(#mask-2)"></path>
        </g>
    </g>
</svg>